<mxfile host="app.diagrams.net" modified="2021-11-15T02:18:42.685Z" agent="5.0 (Windows NT 10.0; Win64; x64) AppleWebKit/537.36 (KHTML, like Gecko) Chrome/95.0.4638.69 Safari/537.36" etag="wP6NRkq740NbuVsuJE6M" version="15.7.3" type="github">
  <diagram id="rQcXJP_CoR8gmarrFBJZ" name="Page-1">
    <mxGraphModel dx="1422" dy="762" grid="1" gridSize="10" guides="1" tooltips="1" connect="1" arrows="1" fold="1" page="1" pageScale="1" pageWidth="827" pageHeight="1169" math="0" shadow="0">
      <root>
        <mxCell id="0" />
        <mxCell id="1" parent="0" />
        <mxCell id="NMb0EwoN-y9CgzN5LoBU-4" value="" style="rounded=0;orthogonalLoop=1;jettySize=auto;html=1;" edge="1" parent="1" source="NMb0EwoN-y9CgzN5LoBU-2" target="NMb0EwoN-y9CgzN5LoBU-3">
          <mxGeometry relative="1" as="geometry" />
        </mxCell>
        <mxCell id="NMb0EwoN-y9CgzN5LoBU-2" value="$$i$$" style="ellipse;whiteSpace=wrap;html=1;" vertex="1" parent="1">
          <mxGeometry x="300" y="60" width="120" height="80" as="geometry" />
        </mxCell>
        <mxCell id="NMb0EwoN-y9CgzN5LoBU-3" value="&lt;span&gt;\(\Delta_{ij})\&lt;/span&gt;" style="ellipse;whiteSpace=wrap;html=1;" vertex="1" parent="1">
          <mxGeometry x="180" y="240" width="120" height="60" as="geometry" />
        </mxCell>
      </root>
    </mxGraphModel>
  </diagram>
</mxfile>
